<svg width="914" height="400" fill="none" xmlns="http://www.w3.org/2000/svg"><path fill="#fff" d="M0 0h914v400H0z"/><path d="m461.133 240.946.076.054.032-.043h-.064l-.044-.011Zm41.274-41.475v-.345L483.391 177h-44.375l-18.724 22.126v.345l40.971 41.475 41.144-41.475Zm-41.316 41.485.021-.075-.054-.065.033.14Z" fill="#731630"/><path d="M502.396 199.482v-.346l-14.262-13.266 7.131 13.612h7.131Z" fill="#261822"/><path d="m483.381 177.011 4.754 8.859 14.262 13.266-19.016-22.125Z" fill="#731630"/><path d="M502.396 199.482h-7.131l-11.755 19.014 18.886-19.014Z" fill="#40152A"/><path d="M485.757 199.482h9.508l-7.131-13.612-2.377 13.612Z" fill="#731630"/><path d="m483.51 218.496 11.755-19.014h-9.508l-2.247 19.014Z" fill="#CC1E2C"/><path d="M483.381 177.011h-6.732l11.486 8.859-4.754-8.859Z" fill="#261822"/><path d="m488.134 185.87-11.485-8.859-5.154 8.988v.043l14.262 13.44 2.377-13.612Z" fill="#CC1E2C"/><path d="m483.51 218.496 2.248-19.014-24.559 41.485 22.311-22.471Z" fill="#261822"/><path d="m461.133 240.838.065.129 24.559-41.485-16.877 19.209-7.747 22.147Z" fill="#CC1E2C"/><path d="m475.601 199.482-6.721 19.209 16.877-19.209h-10.156Z" fill="#731630"/><path d="m471.495 186.042 4.106 13.44h10.156l-14.262-13.44Z" fill="#40152A"/><path d="m461.199 177.011 10.297 8.988 5.153-8.988h-15.45Z" fill="#731630"/><path d="m461.199 199.223.108.259h14.294l-4.105-13.44-10.297 13.105v.076Z" fill="#261822"/><path d="M475.601 199.482h-14.294l7.574 19.209 6.72-19.209Z" fill="#40152A"/><path d="M471.496 186.042v-.043l-10.297-8.988-10.297 8.988 10.297 13.148 10.297-13.105Z" fill="#CC1E2C"/><path d="M461.306 199.482h-.205l-7.682 19.77 7.498 21.229.217.357 7.746-22.147-7.574-19.209Zm-.108-.259v-.076l-10.297-13.148-4.473 13.483h14.673l.097-.259Z" fill="#731630"/><path d="m445.748 177.011 5.153 8.988 10.297-8.988h-15.45Z" fill="#261822"/><path d="m453.408 219.242.011.01 7.682-19.77h-14.673l6.98 19.76Zm-16.553-19.76 2.021 19.003 22.139 22.288-.097-.292-24.063-40.999Z" fill="#40152A"/><path d="m453.419 219.252-.011-.01-16.553-19.76 24.063 40.999-7.499-21.229Z" fill="#261822"/><path d="m453.408 219.242-6.98-19.76h-9.573l16.553 19.76Z" fill="#CC1E2C"/><path d="m450.902 185.999-5.154-8.988-11.421 8.859 2.528 13.612 14.047-13.483Z" fill="#731630"/><path d="m446.428 199.482 4.474-13.483-14.047 13.483h9.573Zm-7.412-22.471-4.689 8.859 11.421-8.859h-6.732Z" fill="#40152A"/><path d="m434.327 185.869 4.689-8.859L420 199.135l14.327-13.266Zm2.529 13.613h-8.795l10.804 18.993.011.01-2.02-19.003Z" fill="#731630"/><path d="m438.865 218.475-10.805-18.993H420l18.865 18.993Z" fill="#40152A"/><path d="M428.061 199.482h8.795l-2.529-13.612-6.266 13.612Z" fill="#CC1E2C"/><path d="M420 199.136v.346h8.06l6.267-13.612L420 199.136Z" fill="#261822"/><path d="M506.548 252.184a2.134 2.134 0 0 1-1.538-.651l-5.98-6.194a2.141 2.141 0 0 1 .052-3.03c.857-.818 2.22-.801 3.03.052l3.348 3.471 4.603-17.127-17.282 4.003 3.348 3.472a2.14 2.14 0 0 1-.052 3.03 2.14 2.14 0 0 1-3.03-.051l-5.979-6.193a2.137 2.137 0 0 1-.514-2.096 2.141 2.141 0 0 1 1.573-1.483l24.447-5.658a2.147 2.147 0 0 1 2.551 2.649l-6.515 24.233a2.128 2.128 0 0 1-1.53 1.518 2.476 2.476 0 0 1-.532.055Z" fill="#731630"/><path d="M462.025 261.078c-.347 0-.694-.004-1.041-.008a58.22 58.22 0 0 1-38.704-15.615 2.146 2.146 0 0 1-.107-3.03 2.146 2.146 0 0 1 3.03-.107 53.907 53.907 0 0 0 35.858 14.465c13.917.185 27.246-4.813 37.499-14.246a2.16 2.16 0 0 1 3.03.124c.802.87.746 2.229-.124 3.03-10.81 9.944-24.782 15.387-39.441 15.387Z" fill="#731630"/><path d="M415.877 239.909c-.561 0-1.11-.223-1.517-.626l-17.731-17.757a2.128 2.128 0 0 1-.549-2.088 2.146 2.146 0 0 1 1.543-1.508l8.354-2.079a2.143 2.143 0 0 1 1.037 4.157l-4.685 1.162 12.533 12.55 5.182-16.965-4.689 1.162c-1.166.27-2.311-.425-2.593-1.565a2.14 2.14 0 0 1 1.564-2.593l8.353-2.074a2.133 2.133 0 0 1 2.066.608 2.13 2.13 0 0 1 .498 2.096l-7.325 24.002a2.169 2.169 0 0 1-1.53 1.458c-.163.038-.339.06-.511.06Z" fill="#40152A"/><path d="M406.547 219.455a2.145 2.145 0 0 1-2.091-1.675c-3.279-14.676-.819-29.857 6.922-42.75a58.18 58.18 0 0 1 32.913-25.721 2.15 2.15 0 0 1 2.679 1.423 2.149 2.149 0 0 1-1.423 2.679 53.888 53.888 0 0 0-30.492 23.831c-7.175 11.941-9.45 26.003-6.412 39.599a2.146 2.146 0 0 1-2.096 2.614Z" fill="#40152A"/><path d="M471.237 168.108a2.142 2.142 0 0 1-1.564-.682l-17.123-18.34a2.135 2.135 0 0 1-.493-2.053 2.149 2.149 0 0 1 1.509-1.483l24.242-6.48a2.16 2.16 0 0 1 2.079.57c.544.552.745 1.35.531 2.091l-2.379 8.277c-.325 1.14-1.521 1.808-2.649 1.47a2.144 2.144 0 0 1-1.47-2.649l1.333-4.633-17.131 4.577 12.099 12.966 1.338-4.638c.321-1.144 1.517-1.813 2.649-1.47a2.143 2.143 0 0 1 1.47 2.649l-2.379 8.276a2.139 2.139 0 0 1-1.556 1.496 2.596 2.596 0 0 1-.506.056Z" fill="#CC1E2C"/><path d="M514.92 215.734c-.133 0-.266-.013-.399-.039a2.14 2.14 0 0 1-1.71-2.499c2.285-12.279.202-25.077-5.872-36.028-6.755-12.186-17.791-21.186-31.087-25.353a2.146 2.146 0 0 1-1.406-2.687 2.153 2.153 0 0 1 2.688-1.406c14.35 4.501 26.265 14.217 33.555 27.371 6.55 11.821 8.804 25.631 6.335 38.892a2.148 2.148 0 0 1-2.104 1.749Z" fill="#CC1E2C"/></svg>